<?xml version="1.0" encoding="UTF-8" standalone="no"?>
<!-- Created with Inkscape (http://www.inkscape.org/) -->

<svg
   xmlns:dc="http://purl.org/dc/elements/1.1/"
   xmlns:cc="http://creativecommons.org/ns#"
   xmlns:rdf="http://www.w3.org/1999/02/22-rdf-syntax-ns#"
   xmlns:svg="http://www.w3.org/2000/svg"
   xmlns="http://www.w3.org/2000/svg"
   version="1.1"
   width="256"
   height="256"
   id="svg2">
  <defs
     id="defs4">
    <linearGradient
       id="linearGradient3782">
      <stop
         id="stop3784"
         style="stop-color:#a8c5ff;stop-opacity:1"
         offset="0" />
      <stop
         id="stop3786"
         style="stop-color:#a8c5ff;stop-opacity:0.94117647"
         offset="1" />
    </linearGradient>
  </defs>
  <metadata
     id="metadata7">
    <rdf:RDF>
      <cc:Work
         rdf:about="">
        <dc:format>image/svg+xml</dc:format>
        <dc:type
           rdf:resource="http://purl.org/dc/dcmitype/StillImage" />
        <dc:title></dc:title>
      </cc:Work>
    </rdf:RDF>
  </metadata>
  <g
     transform="translate(0,-796.3622)"
     id="layer1">
    <g
       transform="matrix(0.72842318,0,0,0.72842318,-60.172487,341.53344)"
       id="text2985"
       style="font-size:500px;font-style:normal;font-variant:normal;font-weight:normal;font-stretch:normal;line-height:125%;letter-spacing:0px;word-spacing:0px;fill:#3c4d68;fill-opacity:1;stroke:none;font-family:Ubuntu;-inkscape-font-specification:Ubuntu">
      <path
         d="m 326.72685,119.56824 -7.78935,27.08801 C 308.43962,142.43879 297.4629,139.34036 286,137.375 c -11.66684,-1.99973 -23.33349,-2.99973 -35,-3 -19.00013,2.7e-4 -36.33345,3.50027 -52,10.5 -15.33341,6.66692 -28.3334,16.16691 -39,28.5 -10.66671,12.00022 -19.00004,26.33354 -25,43 -5.66669,16.66684 -8.50002,35.00015 -8.5,55 -2e-5,20.00011 2.66664,38.33343 8,55 5.3333,16.33339 13.33329,30.50005 24,42.5 10.99993,12.00002 24.33325,21.33335 40,28 15.99989,6.66667 34.49987,10 55.5,10 6.66651,0 13.49983,-0.5 20.5,-1.5 7.33315,-0.66667 14.16648,-1.66667 20.5,-3 20.50513,-4.03967 37.88993,-4.84434 63.1739,-5.94705 L 329.95204,373.19566 344.46875,336.9919 C 312.80242,348.08858 289.2529,365.76909 260,365.875 c -15.33348,4e-5 -28.33346,-2.16663 -39,-6.5 -10.66677,-4.66662 -19.5001,-11.16661 -26.5,-19.5 -6.66675,-8.33326 -11.66675,-18.33325 -15,-30 -3.00007,-11.66656 -4.50007,-24.49988 -4.5,-38.5 -7e-5,-31.33317 6.83325,-55.16648 20.5,-71.5 13.99989,-16.33311 34.98046,-24.49977 60.98059,-24.5 10.33317,2.3e-4 19.99983,1.00023 29,3 8.96811,1.92199 14.88098,2.51116 21.69507,5.66382 l -10.21074,24.0764 90.46486,-17.66228 z"
         transform="translate(0,540.3622)"
         id="path2998"
         style="fill:#3c4d68;fill-opacity:1;stroke:none" />
    </g>
    <g
       transform="translate(440,0)"
       id="g3000"
       style="font-size:500px;font-style:normal;font-variant:normal;font-weight:normal;font-stretch:normal;line-height:125%;letter-spacing:0px;word-spacing:0px;fill:#000000;fill-opacity:1;stroke:none;font-family:Ubuntu;-inkscape-font-specification:Ubuntu">
      <path
         d="m 254.01525,947.24542 c -21.00013,0 -39.50011,-3.33333 -55.5,-10 -15.66675,-6.66665 -29.00007,-15.99998 -40,-28 -10.66671,-11.99995 -18.6667,-26.16661 -24,-42.5 -5.33336,-16.66657 -8.00002,-34.99989 -8,-55 -2e-5,-19.99985 2.83331,-38.33316 8.5,-55 5.99996,-16.66646 14.33329,-30.99978 25,-43 10.6666,-12.33309 23.66659,-21.83308 39,-28.5 15.66655,-6.99973 32.99987,-10.49973 52,-10.5 11.66651,2.7e-4 23.33316,1.00027 35,3 11.66647,2.00026 22.83313,5.16693 33.5,9.5 l -10.5,39.5 c -7.0002,-3.33311 -15.16686,-5.99978 -24.5,-8 -9.00017,-1.99977 -18.66683,-2.99977 -29,-3 -26.00013,2.3e-4 -46.00011,8.16689 -60,24.5 -13.66675,16.33352 -20.50007,40.16683 -20.5,71.5 -7e-5,14.00012 1.49993,26.83344 4.5,38.5 3.33325,11.66675 8.33325,21.66674 15,30 6.9999,8.33339 15.83323,14.83338 26.5,19.5 10.66654,4.33337 23.66652,6.50004 39,6.5 12.33316,4e-5 23.49982,-1.16663 33.5,-3.5 9.9998,-2.33329 17.83312,-4.83329 23.5,-7.5 l 6.5,39 c -2.66689,1.66667 -6.50021,3.33334 -11.5,5 -5.0002,1.33334 -10.66687,2.5 -17,3.5 -6.33352,1.33333 -13.16685,2.33333 -20.5,3 -7.00017,1 -13.83349,1.5 -20.5,1.5"
         id="path3002" />
    </g>
    <path
       d="m 764.97714,665.00229 59.68462,64.7916 -82.30468,17.79768 z"
       id="path3004"
       style="fill:#000000;fill-opacity:1;stroke:none" />
    <path
       d="m 747.55555,898.70696 36.90646,-13.01994 -7.2344,27.72746 18.87654,17.12716 -43.80421,8.74474 z"
       id="path3006"
       style="fill:#000000;fill-opacity:1;stroke:none" />
  </g>
</svg>
